<?xml version="1.0" encoding="utf-8"?>
<!-- Generator: Adobe Illustrator 16.0.0, SVG Export Plug-In . SVG Version: 6.00 Build 0)  -->
<!DOCTYPE svg PUBLIC "-//W3C//DTD SVG 1.1//EN" "http://www.w3.org/Graphics/SVG/1.1/DTD/svg11.dtd">
<svg version="1.1" id="Capa_1" xmlns="http://www.w3.org/2000/svg" xmlns:xlink="http://www.w3.org/1999/xlink" x="0px" y="0px"
	 width="512px" height="512px" viewBox="0 0 512 512" enable-background="new 0 0 512 512" xml:space="preserve">
<g>
	<g>
		<path fill="#CFDAE2" d="M221.099,330.846c10.052,7.902,20.753,14.105,31.787,18.44c0.999,0.385,2.057,0.581,3.115,0.581
			c1.059,0,2.116-0.196,3.115-0.589c11.033-4.327,21.734-10.53,31.786-18.441c33.929-26.657,50.433-59.306,50.433-99.771v-60.399
			c0-4.292-3.191-7.919-7.45-8.465c-31.189-3.977-53.351-19.191-69.53-30.293l-3.549-2.432c-2.902-1.962-6.699-1.962-9.601,0
			l-3.55,2.432c-16.179,11.102-38.34,26.308-69.529,30.293c-4.267,0.546-7.458,4.173-7.458,8.465v60.399
			C170.667,271.531,187.17,304.18,221.099,330.846z M187.733,177.971c30.523-5.632,52.873-20.54,68.267-31.095
			c15.395,10.556,37.743,25.463,68.267,31.095v53.094c0,35.38-13.952,62.813-43.913,86.366
			c-7.781,6.118-15.957,11.051-24.354,14.678c-8.388-3.627-16.563-8.56-24.354-14.678c-29.96-23.553-43.913-50.995-43.913-86.366
			V177.971z"/>
		<path fill="#CFDAE2" d="M498.534,409.6H486.4V85.905c0-19.141-15.565-34.705-34.697-34.705H60.296
			C41.165,51.2,25.6,66.765,25.6,85.905V409.6H13.466C6.042,409.6,0,415.642,0,423.065v24.269c0,7.425,6.042,13.466,13.466,13.466
			h485.068c7.424,0,13.466-6.041,13.466-13.466v-24.269C512,415.642,505.958,409.6,498.534,409.6z M42.667,85.905
			c0-9.728,7.911-17.639,17.63-17.639h391.399c9.728,0,17.638,7.911,17.638,17.639V409.6H300.398l-2.021,5.658
			c-0.521,1.434-1.945,2.876-3.977,2.876h-68.267c-2.031,0-3.456-1.442-3.977-2.876l-2.022-5.658H42.667V85.905z M494.934,443.733
			H17.067v-17.066H25.6h183.543c3.959,5.265,10.223,8.533,16.99,8.533H294.4c6.767,0,13.03-3.269,16.989-8.533H486.4h8.533V443.733z
			"/>
		<path fill="#CFDAE2" d="M460.8,76.8H51.2v324.267h409.6V76.8z M443.733,384H68.267V93.867h375.467V384z"/>
	</g>
</g>
</svg>
