<?xml version="1.0" encoding="utf-8"?>
<!-- Generator: Adobe Illustrator 16.0.0, SVG Export Plug-In . SVG Version: 6.00 Build 0)  -->
<!DOCTYPE svg PUBLIC "-//W3C//DTD SVG 1.1//EN" "http://www.w3.org/Graphics/SVG/1.1/DTD/svg11.dtd">
<svg version="1.1" id="Capa_1" xmlns="http://www.w3.org/2000/svg" xmlns:xlink="http://www.w3.org/1999/xlink" x="0px" y="0px"
	 width="512px" height="512px" viewBox="0 0 512 512" enable-background="new 0 0 512 512" xml:space="preserve">
<g>
	<path fill="#CFDAE2" d="M187.733,230.4h128c4.719,0,8.533-3.823,8.533-8.533v-102.4c0-4.71-3.814-8.533-8.533-8.533h-17.067V89.6
		c0-25.882-21.06-46.934-46.933-46.934S204.8,63.718,204.8,89.6v21.333h-17.066c-4.719,0-8.533,3.823-8.533,8.533v102.4
		C179.2,226.577,183.015,230.4,187.733,230.4z M221.867,89.6c0-16.469,13.397-29.867,29.867-29.867
		c16.47,0,29.866,13.397,29.866,29.867v21.333h-59.733V89.6z"/>
	<path fill="#CFDAE2" d="M418.134,281.6H93.867C42.112,281.6,0,323.712,0,375.467s42.112,93.866,93.867,93.866h324.267
		c51.754,0,93.866-42.111,93.866-93.866S469.888,281.6,418.134,281.6z M140.348,366.037l-24.985,12.493l19.464,25.95
		c2.833,3.771,2.065,9.122-1.707,11.946c-1.536,1.152-3.328,1.707-5.111,1.707c-2.603,0-5.154-1.178-6.835-3.414L102.4,389.691
		L83.626,414.72c-1.672,2.236-4.232,3.414-6.835,3.414c-1.784,0-3.576-0.555-5.111-1.707c-3.772-2.824-4.54-8.175-1.707-11.946
		l19.465-25.95l-24.986-12.493c-4.215-2.107-5.922-7.236-3.814-11.451c2.116-4.216,7.245-5.931,11.452-3.814l21.777,10.889V332.8
		c0-4.71,3.814-8.533,8.533-8.533c4.719,0,8.533,3.823,8.533,8.533v28.86l21.786-10.889c4.216-2.116,9.335-0.393,11.452,3.814
		C146.278,358.801,144.563,363.921,140.348,366.037z M242.748,366.037l-24.985,12.493l19.464,25.95
		c2.833,3.771,2.065,9.122-1.707,11.946c-1.536,1.152-3.328,1.707-5.111,1.707c-2.603,0-5.154-1.178-6.835-3.414L204.8,389.691
		l-18.773,25.028c-1.673,2.236-4.233,3.414-6.835,3.414c-1.783,0-3.575-0.555-5.111-1.707c-3.772-2.824-4.54-8.175-1.707-11.946
		l19.464-25.95l-24.986-12.493c-4.215-2.107-5.922-7.236-3.814-11.451c2.116-4.216,7.245-5.931,11.452-3.814l21.777,10.889V332.8
		c0-4.71,3.814-8.533,8.533-8.533c4.719,0,8.534,3.823,8.534,8.533v28.86l21.786-10.889c4.215-2.116,9.344-0.393,11.452,3.814
		C248.678,358.801,246.963,363.921,242.748,366.037z M345.148,366.037l-24.986,12.493l19.465,25.95
		c2.833,3.771,2.064,9.122-1.707,11.946c-1.536,1.152-3.328,1.707-5.111,1.707c-2.603,0-5.154-1.178-6.836-3.414L307.2,389.691
		l-18.773,25.028c-1.673,2.236-4.232,3.414-6.835,3.414c-1.783,0-3.576-0.555-5.111-1.707c-3.771-2.824-4.54-8.175-1.707-11.946
		l19.465-25.95l-24.986-12.493c-4.215-2.107-5.922-7.236-3.814-11.451c2.117-4.216,7.229-5.931,11.452-3.814l21.776,10.889V332.8
		c0-4.71,3.814-8.533,8.534-8.533c4.719,0,8.533,3.823,8.533,8.533v28.86l21.786-10.889c4.215-2.116,9.335-0.393,11.451,3.814
		C351.078,358.801,349.363,363.921,345.148,366.037z M447.548,366.037l-24.985,12.493l19.464,25.95
		c2.833,3.771,2.065,9.122-1.706,11.946c-1.536,1.152-3.328,1.707-5.111,1.707c-2.604,0-5.154-1.178-6.836-3.414L409.6,389.691
		l-18.773,25.028c-1.672,2.236-4.232,3.414-6.834,3.414c-1.784,0-3.576-0.555-5.112-1.707c-3.771-2.824-4.54-8.175-1.706-11.946
		l19.464-25.95l-24.985-12.493c-4.215-2.107-5.922-7.236-3.814-11.451c2.116-4.216,7.228-5.931,11.451-3.814l21.777,10.889V332.8
		c0-4.71,3.814-8.533,8.533-8.533c4.72,0,8.534,3.823,8.534,8.533v28.86l21.785-10.889c4.216-2.116,9.336-0.393,11.452,3.814
		C453.479,358.801,451.764,363.921,447.548,366.037z"/>
</g>
</svg>
