<?xml version="1.0" encoding="utf-8"?>
<!-- Generator: Adobe Illustrator 16.0.0, SVG Export Plug-In . SVG Version: 6.00 Build 0)  -->
<!DOCTYPE svg PUBLIC "-//W3C//DTD SVG 1.1//EN" "http://www.w3.org/Graphics/SVG/1.1/DTD/svg11.dtd">
<svg version="1.1" id="Capa_1" xmlns="http://www.w3.org/2000/svg" xmlns:xlink="http://www.w3.org/1999/xlink" x="0px" y="0px"
	 width="512px" height="512px" viewBox="0 0 512 512" enable-background="new 0 0 512 512" xml:space="preserve">
<g>
	<g>
		<path fill="#CFDAE2" d="M485.64,281.596h-15.556c-14.533,0-26.352,11.819-26.352,26.352v16.316H358.85v-53.07
			c31.113-10.043,50.834-51.644,50.834-109.066c0-61.74-22.775-105.243-58.027-110.833c-0.443-0.068-0.888-0.103-1.34-0.103H8.977
			c-4.104,0-7.629,2.927-8.38,6.963H0.589c-0.171,0.913-4.028,22.597,10.607,40.227c9.711,11.7,24.918,18.509,45.159,20.438
			c-3.046,13.568-4.71,28.246-4.71,43.307c0,62.201,26.241,110.935,59.734,110.935l0,0h179.203v110.653
			c0,14.269,11.613,25.883,25.882,25.883h16.504c11.161,0,20.608-7.143,24.235-17.067h86.529v41.917
			c0,14.532,11.818,26.351,26.352,26.351h15.556c14.533,0,26.352-11.818,26.352-26.351V307.956
			C512,293.424,500.173,281.596,485.64,281.596z M349.591,68.259c20.454,3.721,40.858,31.429,42.821,85.335H217.305l-31.634-31.634
			c-1.604-1.604-3.772-2.5-6.033-2.5h-17.067h-2.97h-34.006h-9.131c-2.295-3.754-5.333-7.398-8.662-10.982
			c0.068,0.06,0.171,0.077,0.239,0.145c-0.444-0.478-0.99-0.964-1.451-1.442c-1.332-1.383-2.68-2.756-4.13-4.105
			c-0.444-0.41-0.947-0.828-1.408-1.246C86.384,88.629,66.578,76.989,49.212,68.259H349.591z M24.44,87.63
			c-4.122-4.898-5.939-10.394-6.75-15.13c12.869,5.521,29.944,13.696,45.688,23.168c-0.836,2.107-1.604,4.284-2.364,6.485
			C43.922,101.07,31.642,96.198,24.44,87.63z M85.778,150.752c0-15.437,3.226-26.88,6.238-34.219
			c5.248,4.983,9.31,10.044,11.605,15.036c1.399,3.021,4.42,4.966,7.757,4.966h24.542c0.648,4.617,1.058,9.344,1.058,14.225
			c0,28.792-11.964,54.042-25.601,54.042C97.743,204.803,85.778,179.544,85.778,150.752z M142.714,255.996
			c0.239-0.281,0.444-0.631,0.683-0.913c1.647-1.997,3.243-4.122,4.779-6.4c0.239-0.35,0.495-0.657,0.725-1.024
			c1.758-2.68,3.422-5.564,5.009-8.585c0.41-0.785,0.794-1.621,1.195-2.432c1.161-2.33,2.261-4.736,3.311-7.245
			c0.435-1.041,0.862-2.082,1.28-3.149c1.024-2.628,1.98-5.333,2.884-8.115c0.282-0.871,0.589-1.715,0.862-2.603
			c1.118-3.678,2.134-7.467,3.03-11.375c0.17-0.734,0.29-1.493,0.452-2.236c0.691-3.208,1.297-6.485,1.826-9.822
			c0.205-1.289,0.375-2.594,0.555-3.9c0.41-3.012,0.742-6.067,1.007-9.165c0.111-1.271,0.239-2.517,0.324-3.806
			c0.29-4.31,0.478-8.67,0.478-13.099c0-0.008,0-0.025,0-0.034v-25.566h5l31.634,31.633c1.604,1.604,3.771,2.5,6.033,2.5H392.42
			c-1.963,53.906-22.365,81.614-42.82,85.334h-59.018H142.714L142.714,255.996z M358.842,375.465V341.33h84.882v34.135H358.842z"/>
		<circle fill="#CFDAE2" cx="273.516" cy="221.862" r="8.534"/>
		<circle fill="#CFDAE2" cx="239.381" cy="221.862" r="8.534"/>
		<circle fill="#CFDAE2" cx="205.247" cy="221.862" r="8.534"/>
	</g>
</g>
</svg>
